<mxfile host="app.diagrams.net" modified="2021-04-13T19:03:25.952Z" agent="5.0 (Windows NT 10.0; Win64; x64) AppleWebKit/537.36 (KHTML, like Gecko) Chrome/89.0.4389.114 Safari/537.36" etag="epSNaoGe_1Q21Ff0MjKl" version="14.5.10" type="github">
  <diagram id="C5RBs43oDa-KdzZeNtuy" name="Page-1">
    <mxGraphModel dx="981" dy="526" grid="1" gridSize="10" guides="1" tooltips="1" connect="1" arrows="1" fold="1" page="1" pageScale="1" pageWidth="827" pageHeight="1169" math="0" shadow="0">
      <root>
        <mxCell id="WIyWlLk6GJQsqaUBKTNV-0" />
        <mxCell id="WIyWlLk6GJQsqaUBKTNV-1" parent="WIyWlLk6GJQsqaUBKTNV-0" />
        <mxCell id="VIHOFZCNitFwYfkJKbsK-21" style="edgeStyle=orthogonalEdgeStyle;rounded=0;orthogonalLoop=1;jettySize=auto;html=1;entryX=0.5;entryY=0;entryDx=0;entryDy=0;" edge="1" parent="WIyWlLk6GJQsqaUBKTNV-1" source="VIHOFZCNitFwYfkJKbsK-6" target="VIHOFZCNitFwYfkJKbsK-20">
          <mxGeometry relative="1" as="geometry" />
        </mxCell>
        <mxCell id="VIHOFZCNitFwYfkJKbsK-6" value="Usuario Intelisis Cancelara una Factura de Servicio o Refacciones." style="strokeWidth=2;html=1;shape=mxgraph.flowchart.document2;whiteSpace=wrap;size=0.25;" vertex="1" parent="WIyWlLk6GJQsqaUBKTNV-1">
          <mxGeometry x="299.38" y="90" width="172.5" height="100" as="geometry" />
        </mxCell>
        <mxCell id="VIHOFZCNitFwYfkJKbsK-32" style="edgeStyle=orthogonalEdgeStyle;rounded=0;orthogonalLoop=1;jettySize=auto;html=1;entryX=0.5;entryY=0;entryDx=0;entryDy=0;" edge="1" parent="WIyWlLk6GJQsqaUBKTNV-1" source="VIHOFZCNitFwYfkJKbsK-8" target="VIHOFZCNitFwYfkJKbsK-31">
          <mxGeometry relative="1" as="geometry" />
        </mxCell>
        <mxCell id="VIHOFZCNitFwYfkJKbsK-8" value="Envió de Ticket a WS (Refacción o Servicio) con info negativa y datos de Ticket de Afectacion." style="shape=process;whiteSpace=wrap;html=1;backgroundOutline=1;" vertex="1" parent="WIyWlLk6GJQsqaUBKTNV-1">
          <mxGeometry x="60" y="570" width="140" height="90" as="geometry" />
        </mxCell>
        <mxCell id="VIHOFZCNitFwYfkJKbsK-16" value="FIN" style="strokeWidth=2;html=1;shape=mxgraph.flowchart.start_1;whiteSpace=wrap;fillColor=#f8cecc;strokeColor=#b85450;" vertex="1" parent="WIyWlLk6GJQsqaUBKTNV-1">
          <mxGeometry x="377.5" y="780" width="52.5" height="30" as="geometry" />
        </mxCell>
        <mxCell id="VIHOFZCNitFwYfkJKbsK-22" style="edgeStyle=orthogonalEdgeStyle;rounded=0;orthogonalLoop=1;jettySize=auto;html=1;entryX=0.5;entryY=0;entryDx=0;entryDy=0;entryPerimeter=0;" edge="1" parent="WIyWlLk6GJQsqaUBKTNV-1" source="VIHOFZCNitFwYfkJKbsK-19" target="VIHOFZCNitFwYfkJKbsK-6">
          <mxGeometry relative="1" as="geometry" />
        </mxCell>
        <mxCell id="VIHOFZCNitFwYfkJKbsK-19" value="INICIO" style="strokeWidth=2;html=1;shape=mxgraph.flowchart.terminator;whiteSpace=wrap;fillColor=#d5e8d4;strokeColor=#82b366;" vertex="1" parent="WIyWlLk6GJQsqaUBKTNV-1">
          <mxGeometry x="340" y="10" width="90" height="40" as="geometry" />
        </mxCell>
        <mxCell id="VIHOFZCNitFwYfkJKbsK-30" value="&lt;b&gt;No&lt;/b&gt;" style="edgeStyle=orthogonalEdgeStyle;rounded=0;orthogonalLoop=1;jettySize=auto;html=1;" edge="1" parent="WIyWlLk6GJQsqaUBKTNV-1" source="VIHOFZCNitFwYfkJKbsK-20" target="VIHOFZCNitFwYfkJKbsK-27">
          <mxGeometry relative="1" as="geometry" />
        </mxCell>
        <mxCell id="VIHOFZCNitFwYfkJKbsK-35" style="edgeStyle=orthogonalEdgeStyle;rounded=0;orthogonalLoop=1;jettySize=auto;html=1;entryX=0;entryY=0.5;entryDx=0;entryDy=0;" edge="1" parent="WIyWlLk6GJQsqaUBKTNV-1" source="VIHOFZCNitFwYfkJKbsK-20" target="VIHOFZCNitFwYfkJKbsK-34">
          <mxGeometry relative="1" as="geometry" />
        </mxCell>
        <mxCell id="VIHOFZCNitFwYfkJKbsK-36" value="&lt;b&gt;Si&lt;br&gt;&lt;/b&gt;" style="edgeLabel;html=1;align=center;verticalAlign=middle;resizable=0;points=[];" vertex="1" connectable="0" parent="VIHOFZCNitFwYfkJKbsK-35">
          <mxGeometry x="-0.3328" y="1" relative="1" as="geometry">
            <mxPoint as="offset" />
          </mxGeometry>
        </mxCell>
        <mxCell id="VIHOFZCNitFwYfkJKbsK-20" value="La factura es del mismo día?." style="rhombus;whiteSpace=wrap;html=1;" vertex="1" parent="WIyWlLk6GJQsqaUBKTNV-1">
          <mxGeometry x="321.25" y="210" width="128.75" height="90" as="geometry" />
        </mxCell>
        <mxCell id="VIHOFZCNitFwYfkJKbsK-25" style="edgeStyle=orthogonalEdgeStyle;rounded=0;orthogonalLoop=1;jettySize=auto;html=1;entryX=0.5;entryY=0;entryDx=0;entryDy=0;" edge="1" parent="WIyWlLk6GJQsqaUBKTNV-1" source="VIHOFZCNitFwYfkJKbsK-23" target="VIHOFZCNitFwYfkJKbsK-24">
          <mxGeometry relative="1" as="geometry" />
        </mxCell>
        <mxCell id="VIHOFZCNitFwYfkJKbsK-23" value="Generara un Folio para el WS Diferente al enviado previamente." style="shape=process;whiteSpace=wrap;html=1;backgroundOutline=1;" vertex="1" parent="WIyWlLk6GJQsqaUBKTNV-1">
          <mxGeometry x="60" y="350" width="140" height="70" as="geometry" />
        </mxCell>
        <mxCell id="VIHOFZCNitFwYfkJKbsK-26" style="edgeStyle=orthogonalEdgeStyle;rounded=0;orthogonalLoop=1;jettySize=auto;html=1;entryX=0.5;entryY=0;entryDx=0;entryDy=0;" edge="1" parent="WIyWlLk6GJQsqaUBKTNV-1" source="VIHOFZCNitFwYfkJKbsK-24" target="VIHOFZCNitFwYfkJKbsK-8">
          <mxGeometry relative="1" as="geometry" />
        </mxCell>
        <mxCell id="VIHOFZCNitFwYfkJKbsK-24" value="Se extraera el folio enviado en la afectación de la Factura junto con la información de la tarjeta&amp;nbsp;" style="shape=process;whiteSpace=wrap;html=1;backgroundOutline=1;" vertex="1" parent="WIyWlLk6GJQsqaUBKTNV-1">
          <mxGeometry x="60" y="460" width="140" height="80" as="geometry" />
        </mxCell>
        <mxCell id="VIHOFZCNitFwYfkJKbsK-28" style="edgeStyle=orthogonalEdgeStyle;rounded=0;orthogonalLoop=1;jettySize=auto;html=1;entryX=0.5;entryY=0;entryDx=0;entryDy=0;" edge="1" parent="WIyWlLk6GJQsqaUBKTNV-1" source="VIHOFZCNitFwYfkJKbsK-27" target="VIHOFZCNitFwYfkJKbsK-23">
          <mxGeometry relative="1" as="geometry" />
        </mxCell>
        <mxCell id="VIHOFZCNitFwYfkJKbsK-27" value="Afectación de Cancelación en Intelisis&amp;nbsp;" style="shape=process;whiteSpace=wrap;html=1;backgroundOutline=1;" vertex="1" parent="WIyWlLk6GJQsqaUBKTNV-1">
          <mxGeometry x="60" y="220" width="140" height="70" as="geometry" />
        </mxCell>
        <mxCell id="VIHOFZCNitFwYfkJKbsK-33" style="edgeStyle=orthogonalEdgeStyle;rounded=0;orthogonalLoop=1;jettySize=auto;html=1;entryX=0;entryY=0.5;entryDx=0;entryDy=0;entryPerimeter=0;" edge="1" parent="WIyWlLk6GJQsqaUBKTNV-1" source="VIHOFZCNitFwYfkJKbsK-31" target="VIHOFZCNitFwYfkJKbsK-16">
          <mxGeometry relative="1" as="geometry">
            <Array as="points">
              <mxPoint x="130" y="795" />
            </Array>
          </mxGeometry>
        </mxCell>
        <mxCell id="VIHOFZCNitFwYfkJKbsK-31" value="Retorno de Mensaje con Estatus en que quedo" style="rounded=1;whiteSpace=wrap;html=1;" vertex="1" parent="WIyWlLk6GJQsqaUBKTNV-1">
          <mxGeometry x="70" y="700" width="120" height="60" as="geometry" />
        </mxCell>
        <mxCell id="VIHOFZCNitFwYfkJKbsK-34" value="Afectación de Cancelación en Intelisis usando Mov Contrario.(CE Refacc, CE Servicio)" style="shape=process;whiteSpace=wrap;html=1;backgroundOutline=1;" vertex="1" parent="WIyWlLk6GJQsqaUBKTNV-1">
          <mxGeometry x="580" y="215" width="170" height="80" as="geometry" />
        </mxCell>
      </root>
    </mxGraphModel>
  </diagram>
</mxfile>
